PathFileType	4	(X/Y/Z)	 s02c0203.trc
DataRate	CameraRate	NumFrames	NumMarkers	Units	OrigDataRate	OrigDataStartFrame	OrigNumFrames
200	200	5	51	mm	200	1001	2000
Frame#	Time	racr			lacr			c7			jug			rlel			rdr			llel			ldr			s2			lic			ric			lasi			rasi			rpsi			lpsi			rgt			lgt			rth1			rth2			rth3			rth4			rlfc			rmfc			rsh1			rsh2			rsh3			rsh4			rlmal			rmmal			rcal			rtoe			rmt5			rmt1			lth1			lth2			lth4			lth3			llfc			lmfc			lsh1			lsh2			lsh3			lsh4			llmal			lmmal			lcal			ltoe			lmt5			SBIKE			LBIKE			RBIKE			
		X1	Y1	Z1	X2	Y2	Z2	X3	Y3	Z3	X4	Y4	Z4	X5	Y5	Z5	X6	Y6	Z6	X7	Y7	Z7	X8	Y8	Z8	X9	Y9	Z9	X10	Y10	Z10	X11	Y11	Z11	X12	Y12	Z12	X13	Y13	Z13	X14	Y14	Z14	X15	Y15	Z15	X16	Y16	Z16	X17	Y17	Z17	X18	Y18	Z18	X19	Y19	Z19	X20	Y20	Z20	X21	Y21	Z21	X22	Y22	Z22	X23	Y23	Z23	X24	Y24	Z24	X25	Y25	Z25	X26	Y26	Z26	X27	Y27	Z27	X28	Y28	Z28	X29	Y29	Z29	X30	Y30	Z30	X31	Y31	Z31	X32	Y32	Z32	X33	Y33	Z33	X34	Y34	Z34	X35	Y35	Z35	X36	Y36	Z36	X37	Y37	Z37	X38	Y38	Z38	X39	Y39	Z39	X40	Y40	Z40	X41	Y41	Z41	X42	Y42	Z42	X43	Y43	Z43	X44	Y44	Z44	X45	Y45	Z45	X46	Y46	Z46	X47	Y47	Z47	X48	Y48	Z48	X49	Y49	Z49	X50	Y50	Z50	X51	Y51	Z51	
1001	5.0050	557.649155	1227.541323	-182.226626	502.795433	1251.296801	-505.247170	514.480317	1286.003327	-344.295237	454.190552	1157.136032	-336.993871	567.580431	1016.160484	-18.698751	705.199062	888.475811	-107.445546	503.563386	995.199109	-623.812465	685.914070	895.890279	-531.364217	-4.062824	1116.341111	-288.979520	110.303436	1121.770942	-440.982543	122.696324	1102.972157	-147.449479	160.236223	1097.466645	-418.973534	174.301157	1082.237237	-181.609257	12.084516	1146.191654	-244.626981	15.516624	1157.645190	-333.127151	99.544900	1011.313418	-115.256009	87.859515	1037.799116	-473.355838	190.550239	962.691333	-118.466721	269.200464	922.559661	-122.145697	319.931144	856.457491	-101.300032	289.669714	943.159878	-146.599747	393.681372	735.118893	-133.407048	377.782657	720.609386	-243.006528	341.639567	635.387556	-121.661329	299.772144	557.465696	-142.624023	231.200422	506.915840	-136.419236	312.053310	552.627935	-179.246642	145.269589	427.221758	-142.624478	167.994906	438.393270	-223.216761	66.428034	448.219048	-188.961709	235.642397	216.319243	-185.519974	156.682238	292.823874	-129.998581	184.128669	279.219443	-237.295852	215.736998	980.136290	-491.117133	298.773455	954.090179	-490.508280	313.778049	980.790205	-472.735904	357.476445	886.854679	-493.155235	437.878783	822.178539	-473.889846	452.354033	790.746200	-373.756511	426.175149	717.540246	-495.129544	427.610654	631.864628	-481.147159	383.477383	552.821470	-483.574279	447.093080	630.063102	-445.181018	339.549236	455.109876	-471.011252	357.479764	452.569916	-394.212366	274.194539	398.590578	-435.594673	563.137638	387.722192	-438.543345	457.460574	364.812733	-501.909764	-126.212890	871.783987	-307.550905	37.276806	86.631552	-514.199763	33.336981	83.717063	-114.225826	
1002	5.0100	557.189932	1228.255748	-181.598513	502.734178	1251.483261	-504.753526	514.050687	1286.231994	-343.715482	454.398684	1157.072377	-336.341392	567.603427	1016.335921	-18.574182	705.236558	888.520269	-107.518832	503.018968	995.309155	-623.344289	685.815563	895.867229	-531.437126	-4.447366	1115.280919	-289.433845	110.489030	1120.959305	-441.513079	122.434821	1102.382605	-147.824310	160.386073	1096.411935	-418.960485	173.911099	1082.147203	-182.351035	11.826255	1144.722326	-245.177869	15.365225	1156.421205	-333.847440	100.200487	1010.755399	-115.314009	87.619493	1035.942450	-473.440428	191.533107	964.204261	-118.877454	271.071145	925.871910	-123.225337	323.709616	861.608848	-101.981761	290.643248	946.658020	-148.248783	398.981595	740.845765	-134.186826	382.845700	726.367236	-243.319482	345.935414	641.973715	-121.982624	302.782731	564.896123	-142.893745	233.562370	515.383749	-136.822774	314.884344	559.771574	-179.609299	146.215941	437.723754	-142.880198	169.221755	448.553504	-223.558851	67.571923	459.978595	-189.237951	233.170050	225.400839	-185.400481	155.432992	303.237174	-130.045714	182.674732	289.060225	-237.405573	214.800486	975.973429	-491.526297	297.377384	948.278978	-491.017201	313.611796	974.535650	-473.359866	354.564880	879.740703	-493.678030	434.310970	814.669802	-473.626518	448.433481	783.255659	-373.709035	423.424290	709.612435	-495.483159	426.729974	623.922159	-481.686691	384.800193	543.413935	-483.529137	446.274489	622.361136	-445.872444	342.123650	444.977791	-471.826712	359.849234	442.558168	-394.880410	276.731869	389.226185	-436.188872	565.744100	375.854082	-438.342763	459.989738	353.952338	-501.922962	-126.196023	871.771325	-307.574965	37.270726	86.597614	-514.174612	33.517336	83.448432	-114.312974	
1003	5.0150	556.750938	1229.000714	-180.880508	502.819254	1251.631725	-504.093742	513.661745	1286.529998	-342.969429	454.701554	1157.053320	-335.591697	567.650447	1016.520226	-18.363639	705.304234	888.535256	-107.572539	502.699131	995.302399	-622.859837	685.803519	895.588933	-531.537697	-4.351603	1114.168248	-290.129868	110.552629	1120.379295	-442.142831	122.208032	1101.889527	-148.241063	160.775226	1095.272587	-418.707218	173.424413	1082.102534	-183.232271	11.623092	1143.067571	-245.707202	15.225935	1154.947019	-334.169739	100.595604	1010.384837	-115.411863	87.416715	1034.280377	-473.585108	192.279317	965.934981	-119.076013	272.667672	929.420379	-124.745551	327.210474	866.939770	-102.587903	291.199348	950.522205	-149.578041	404.359937	747.193871	-134.606399	387.746247	732.406912	-243.702513	350.387068	648.861496	-122.162726	305.737406	572.597839	-143.227107	235.718529	524.289278	-137.155175	317.808674	567.190100	-179.877124	147.332237	448.294578	-143.146961	170.591816	458.597784	-224.010030	68.963078	471.660846	-189.466648	231.298312	234.829946	-185.506642	154.756877	313.814328	-130.158088	181.860741	299.099200	-237.418625	213.862626	971.937633	-492.252457	295.693015	942.297929	-491.192186	314.094983	968.300827	-474.923582	351.592674	872.883881	-493.465233	430.432679	806.866354	-473.562346	444.976681	775.436259	-373.025612	420.626042	701.788949	-495.613640	425.416934	616.172892	-482.319447	383.884356	535.617911	-484.298130	444.979635	614.774244	-446.434082	344.141261	434.958046	-472.653054	362.229372	432.847319	-395.661228	278.758004	379.916030	-436.948156	567.648714	363.788587	-438.063283	461.842333	343.014972	-502.004346	-126.217228	871.744435	-307.661370	37.279157	86.547680	-514.196535	33.896765	83.235072	-114.169828	
1004	5.0200	556.244883	1229.722380	-180.015309	503.048434	1251.802898	-503.290083	513.376249	1286.866220	-342.294792	454.845805	1157.196790	-334.880531	567.696928	1016.689682	-18.123490	705.374893	888.558859	-107.643972	502.577180	995.359086	-622.327883	685.849187	895.163244	-531.689924	-4.593626	1113.421305	-290.608527	111.102583	1119.397749	-442.619243	121.954075	1101.542014	-148.568566	161.524859	1093.805376	-418.788807	172.985943	1082.248285	-184.077824	11.383708	1141.159339	-246.746886	15.072956	1153.287555	-330.187597	100.944267	1010.200310	-115.375824	87.248179	1032.771549	-473.817689	192.682988	967.695792	-119.362480	273.947752	933.269338	-125.629441	330.311109	872.591750	-103.115345	292.033050	955.225469	-150.294819	409.397334	754.111577	-135.182717	392.862645	738.852954	-244.047066	354.131869	656.411355	-122.751436	308.811037	580.653182	-143.541688	238.144612	533.349595	-137.505211	320.834252	574.903825	-180.157957	148.719216	459.041416	-143.410954	172.297046	469.084680	-224.337344	70.565367	483.296593	-189.697924	230.309267	244.710994	-185.437600	154.680860	324.561453	-130.240774	181.466561	309.526109	-237.534677	212.831267	967.945022	-492.749154	293.986652	936.472155	-491.573539	313.906369	962.759139	-475.279874	348.250483	865.859609	-493.204679	426.123746	798.937094	-473.528974	441.669498	766.880028	-372.520739	417.407812	693.940110	-495.861196	423.729718	608.342000	-482.878033	383.362931	527.259214	-484.558203	443.096018	607.294374	-446.837253	345.558961	425.027674	-473.452575	363.610870	423.008167	-396.224468	280.711602	370.589660	-437.533341	568.985384	351.352895	-437.380624	463.092251	331.974248	-502.075629	-126.256108	871.681136	-307.770524	37.268791	86.531171	-514.199766	33.911640	83.285709	-114.220692	
1005	5.0250	555.675401	1230.519113	-179.007739	503.516811	1252.020833	-502.359990	513.077345	1287.283603	-341.374167	455.241849	1157.296222	-334.074732	567.848042	1016.850886	-17.841730	705.479708	888.625176	-107.689814	502.606755	995.456399	-621.712548	685.962456	894.534917	-531.978419	-4.351825	1112.322758	-291.298093	111.278068	1119.052018	-443.396690	121.550023	1101.217519	-149.328432	162.038291	1093.024961	-420.032175	172.440218	1082.502191	-185.140919	10.914558	1139.747396	-247.513523	15.077175	1151.818406	-330.849604	101.211010	1010.494214	-115.341192	87.149722	1031.416759	-474.083717	192.849056	969.670672	-119.739012	275.017845	937.303575	-126.379249	333.173482	878.506970	-103.605700	292.741771	959.788450	-150.946398	414.397669	761.338977	-135.644870	397.808295	745.683940	-244.606188	358.481672	664.125256	-123.114820	311.928923	588.965076	-143.811179	240.010255	543.122664	-137.370127	323.981488	582.931438	-180.267310	150.263309	469.913935	-143.732832	174.636298	480.015174	-224.461051	72.169861	494.633342	-189.820274	230.128849	254.876041	-185.465102	155.134980	335.469600	-130.305748	181.733496	320.100439	-237.637126	211.779161	964.055968	-493.336684	292.139961	930.624259	-491.870888	304.994402	954.730759	-479.049349	344.758094	858.847149	-493.269893	421.490190	790.910803	-473.355613	436.800104	758.769608	-372.709774	413.817448	685.785853	-496.118017	421.546199	600.509128	-483.314735	382.478415	518.544396	-485.199377	440.802858	599.475172	-447.129324	346.390265	415.151722	-474.336986	364.611778	413.899637	-397.561084	281.434930	361.616036	-438.451515	569.663114	339.591983	-437.821569	463.655312	321.035176	-502.237837	-126.295624	871.658571	-307.922063	37.261216	86.492041	-514.197847	33.899698	83.213893	-114.185400	
